<?xml version="1.0" encoding="UTF-8" standalone="no"?>
<svg
  version="1.0"
  width="969.60767"
  height="650.82416"
  viewBox="0 0 1163.5292 780.98899"
  preserveAspectRatio="xMidYMid"
  id="LethargicSloths"
  xml:space="preserve"
  xmlns="http://www.w3.org/2000/svg"
  xmlns:svg="http://www.w3.org/2000/svg">

  <title>Lethargic Sloths</title>
  <desc>Animated logo for the 'Lethargic Sloths' club in Supercell's 'Brawl Stars' game.  This material is unofficial and is not endorsed by Supercell. For more information see Supercell's Fan Content Policy: www.supercell.com/fan-content-policy.</desc>

  <g id="text">

    <g id="Sloths-text"
      transform="translate(-1027.764,-1144.5859)">

      <path id="sloths-shadow"
        fill="#000000"
        d="m 1278.5296,1179.454 -45.1875,130.7183 -50.9429,-7.689 -0.6167,10.5645 c -5.0896,-0.1146 -10.2061,-0.087 -15.3457,0.2754 l -0.2168,0.015 -0.2212,0.022 c -29.9242,2.9002 -49.3195,9.9701 -65.8374,24.6563 -21.7785,18.948 -33.8661,46.3643 -32.625,77.6718 0.685,22.205 6.5129,41.9386 18.6592,57.5098 5.3361,6.8413 13.038,13.5368 13.229,14.71 l -13.8472,69.186 -47.3906,-12.6563 38.9546,54.7984 -0.088,0.4468 11.6411,5.5883 c 14.3902,6.9094 27.6732,11.9889 42.8379,15.4659 l 0.073,0.019 0.072,0.016 c 25.4845,5.6064 40.9529,6.7999 55.0913,6.2183 h 0.063 0.067 c 18.9382,-0.9296 34.0892,-3.9028 46.2979,-9.0352 16.1421,-6.5266 29.365,-15.6061 40.2436,-27.7514 l 8.3174,18.8071 0.034,0.8013 121.0415,-4.8926 0.1421,-0.7954 c 443.6645,6.3457 0,0 443.6645,6.3457 l 0.04,-0.9566 15.397,-47.2558 -2.0274,48.7705 98.9165,4.1133 0.2168,-5.1915 c 2.0708,0.8438 4.1264,1.7157 6.2329,2.4961 l 0.069,0.025 0.069,0.026 c 23.3709,8.4232 37.8962,11.4685 51.3399,12.6592 l 0.064,0.01 0.067,0.01 c 18.0019,1.4508 32.7018,0.5104 44.9458,-2.8726 22.6086,-5.9143 40.5607,-17.3281 55.0415,-35.5341 v -0.01 c 3.1567,-3.9518 5.9588,-8.1106 8.5679,-12.3662 l 0.069,0.1245 45.9771,-71.5151 -33.5596,0.5918 c -3.6472,-17.2723 -12.0178,-33.2013 -24.7603,-46.4576 l 38.3042,-114.6079 -97.3139,-25.5835 -3.4102,9.8379 c -5.6045,-0.6803 -11.0512,-1.1607 -16.166,-1.4633 l -0.2212,-0.013 -0.2197,-0.01 c -9.7456,-0.3192 -18.3624,0.034 -26.2617,1.0357 l -22.0284,-144.7574 z m -39.3355,244.8838 0.3252,0.148 c -0.04,-0.019 -0.076,-0.027 -0.1157,-0.045 -0.071,-0.032 -0.1395,-0.069 -0.2095,-0.1026 z m 851.3775,14.6338 0.3413,0.2139 c -0.033,-0.021 -0.065,-0.033 -0.098,-0.054 -0.084,-0.051 -0.1594,-0.1089 -0.2431,-0.1597 z" />

      <path id="sloths-stroke"       
        fill="#000000"
        d="m 1151.1309,1225.9004 -0.6641,11.3379 c -5.4622,-0.123 -10.951,-0.094 -16.4668,0.2949 l -0.2344,0.016 -0.2363,0.024 c -32.1154,3.1125 -52.9292,10.6991 -70.6563,26.4609 -23.3733,20.3354 -36.3475,49.7569 -35.0156,83.3574 0.7352,23.8306 6.9899,45.0096 20.0254,61.7207 5.7272,7.3421 13.9939,14.5273 14.1989,15.7863 l -24.0094,119.9579 12.4922,5.998 c 15.444,7.4152 29.6998,12.8659 45.9746,16.5977 l 0.078,0.02 0.078,0.016 c 27.3502,6.0168 43.9493,7.2981 59.1231,6.6739 h 0.07 0.072 c 20.3246,-0.9977 36.585,-4.1886 49.6875,-9.6972 21.3031,-8.6131 37.9361,-21.2805 50.8809,-39.2442 l 1.2715,30.5059 129.9023,-5.252 2.5508,-14.2265 2.4609,-13.7246 c 16.5277,13.7174 36.2227,23.0324 59.7891,27.6875 l 0.1797,0.035 0.1816,0.031 c 5.4254,0.9575 11.6267,2.0251 18.2754,2.4297 17.9422,1.4097 34.053,-0.7859 48.2481,-4.6895 l 0.1074,-0.031 0.1074,-0.031 c 18.1212,-5.2273 32.7931,-12.4304 44.5039,-21.1191 21.1719,-15.7082 34.7256,-32.4519 44.4981,-54.7559 2.7086,-6.0569 4.8868,-12.0299 6.6054,-17.9883 l 0.6993,93.3164 102.5546,-0.1464 -0.1464,-18.1192 -1.0977,-136.666 46.9531,-0.3691 -6.6504,159.8984 106.4727,4.4258 0.748,-17.9844 2.6563,-63.8789 14.3906,0.5977 -3.4043,81.8652 106.1582,4.414 0.2324,-5.5722 c 2.2224,0.9056 4.4287,1.8422 6.6895,2.6797 l 0.074,0.027 0.074,0.027 c 25.0818,9.0398 40.6695,12.308 55.0977,13.5859 l 0.07,0.01 0.072,0.01 c 19.3198,1.557 35.0959,0.5466 48.2363,-3.084 24.2637,-6.3478 43.5291,-18.5952 59.0703,-38.1348 v -0.01 c 11.0418,-13.823 19.2886,-29.4128 22.6172,-46.5372 7.2645,-34.73 -2.8658,-67.8916 -26.5918,-92.5742 l 41.1074,-122.998 -104.4375,-27.457 -3.6601,10.5585 c -6.0148,-0.7301 -11.8603,-1.2456 -17.3496,-1.5703 l -0.2364,-0.014 -0.2363,-0.01 c -30.6706,-1.0048 -51.5127,3.669 -70.2012,16.461 -9.3196,6.2337 -17.3709,13.9136 -23.9375,22.7812 l -81.5937,-3.3925 -3.2539,78.2753 -14.3906,-0.5976 3.2539,-78.2774 -74.8985,-3.1132 0.2422,-0.8086 -20.0254,-0.014 -8.1582,-0.3398 -0.09,0.3339 -94.4512,-0.068 -0.9629,9.1074 -95.8945,1.0254 -6.3496,25.2422 c -6.3059,-5.6993 -13.0037,-10.7631 -20.0742,-15.0547 -19.901,-12.2884 -41.2224,-18.2018 -63.8125,-19.9395 l -0.1895,-0.014 -0.1914,-0.01 c -5.706,-0.317 -12.8368,-0.7451 -20.6875,0.064 -31.9036,2.4965 -58.1003,13.6007 -80.5899,32.9218 -15.915,13.6415 -28.0953,29.9625 -35.8261,47.3496 l -2.8496,-68.4082 -93.2364,3.7696 14.4805,-53.5782 z m 33.6328,41.4824 41.6426,6.2813 -13.1524,48.6679 c -6.1228,-1.6369 -11.659,-2.6295 -16.2383,-3.5996 -13.6074,-2.9919 -23.093,-4.6572 -31.7578,-4.9121 -8.681,-0.2554 -16.784,1.5063 -23.1719,4.1074 l -0.2285,0.094 -0.2265,0.1 c -16.8971,7.4267 -24.4291,29.0963 -13.2539,44.4668 l 0.5468,0.75 0.6192,0.6894 c 3.6573,4.0733 7.6557,7.7115 15.3984,9.7618 l -0.6172,-0.1758 c 20.5566,6.2346 20.9702,6.3558 41.8926,12.1601 l 0.1016,0.027 0.1015,0.027 c 4.5277,1.199 7.7448,2.1966 10.6856,3.5801 l 0.1953,0.092 0.1972,0.088 c 34.9577,15.4325 48.9992,38.4361 46.0215,73.4492 l -0.014,0.1543 -0.01,0.1543 c -0.7507,11.0788 -4.8862,22.8723 -12.2637,34.9219 l -0.012,0.02 -0.012,0.019 c -10.5218,17.2822 -19.8644,25.0537 -39.1914,32.836 l -0.1348,0.055 -0.1328,0.057 c -7.6088,3.2074 -20.1117,6.0766 -37.4922,6.9356 -12.3461,0.5026 -24.3117,-0.2536 -49.7441,-5.8438 -9.1078,-2.0925 -17.1956,-4.7803 -25.7989,-8.3457 l 9.5743,-50.0293 c 27.8768,10.0008 43.4156,14.2011 56.3632,13.9785 10.1484,0.1517 19.1899,-1.9078 25.6465,-5.2129 l 0.7461,-0.3828 0.709,-0.4512 c 13.8763,-8.8232 18.8433,-29.6891 8.9531,-43.6601 l -0.1523,-0.2129 -0.1582,-0.2109 c -3.1132,-4.1361 -7.4076,-8.3109 -13.5879,-10.9493 v 0 c -0.8108,-0.346 -1.623,-0.6933 -1.623,-0.6933 l -0.7832,-0.334 -15.5313,-4.959 -0.1933,-0.057 c 0,0 -17.5655,-5.1779 -34.5977,-10.7227 l -0.1269,-0.041 -0.127,-0.039 c -18.3544,-5.676 -29.9862,-13.3497 -37.5566,-23.0546 -7.5704,-9.705 -11.8804,-22.3087 -12.4336,-40.793 v -0.09 -0.092 c -0.9764,-24.4078 6.6202,-40.8721 22.7285,-54.8554 l 0.088,-0.076 0.088,-0.078 c 12.7524,-11.3653 21.2283,-14.7382 49.9864,-17.5449 8.6855,-0.5972 18.6005,-0.1764 29.3261,0.6289 l 18.2481,1.3711 z m 925.1933,17.3184 35.0137,9.207 -15.6074,46.7012 c -4.4745,-2.2689 -8.9636,-4.3139 -13.4649,-5.9004 -12.4592,-4.4882 -21.2232,-7.2365 -29.4472,-8.5547 -8.2472,-1.3219 -16.2836,-0.6395 -22.6953,1.0547 l -0.2403,0.062 -0.2383,0.07 c -17.3311,5.0952 -27.2882,25.3113 -18.3183,41.6211 l 0.4433,0.8066 0.5235,0.7578 c 3.0362,4.3901 6.417,8.3896 13.7031,11.3692 l -0.5859,-0.2539 c 18.6206,8.3976 19.0121,8.5709 38.0273,16.6074 l 0.098,0.039 0.098,0.041 c 4.1094,1.6805 6.9669,2.9939 9.5078,4.6172 l 0.1817,0.1152 0.1836,0.1113 c 30.8797,18.6997 41.2104,41.7183 34.3847,74.0371 l -0.033,0.1504 -0.029,0.1524 c -1.9671,10.176 -7.1541,20.6401 -15.4257,30.9941 l -0.014,0.019 -0.014,0.018 c -11.8145,14.8654 -21.2183,20.8584 -40.164,25.7852 l -0.1426,0.035 -0.1407,0.039 c -7.3681,2.0443 -19.3652,3.2249 -35.7402,1.9121 -11.6074,-1.0326 -22.67,-3.1857 -45.9101,-11.5566 -6.0983,-2.2613 -11.8443,-4.7242 -17.5254,-7.5528 l 1.0234,-24.6289 7.5586,-22.9941 c 24.8032,12.6985 38.8703,18.5551 51.2812,19.9551 9.6144,1.3937 18.6243,0.5434 25.2032,-1.8223 l 0.7949,-0.2871 0.7637,-0.3574 c 14.565,-6.8384 21.8946,-26.5911 14.0312,-41.3243 l -0.123,-0.2304 -0.1309,-0.2266 c -2.4937,-4.362 -6.1199,-8.9286 -11.7851,-12.2656 -0.7274,-0.4285 -1.4532,-0.8555 -1.4532,-0.8555 l -0.7285,-0.4297 -14.082,-6.5976 -0.1836,-0.082 c 0,0 -15.9218,-7.0294 -31.291,-14.3378 l -0.1211,-0.059 -0.1211,-0.055 c -16.5071,-7.5525 -26.4132,-16.1128 -32.3106,-26.0313 -1.0079,-1.6951 -1.7791,-3.5665 -2.5879,-5.4101 l 2.4903,-59.8575 c 4.5822,-9.1501 11.3607,-16.4106 20.6328,-22.5976 l 0.1,-0.066 0.098,-0.066 c 13.1766,-9.0447 21.1776,-11.1074 48.5273,-10.2266 9.1547,0.5481 18.6334,1.4871 27.6523,3.3574 l 15.4844,3.211 z m -629.6718,32.9004 c 2.483,0.031 5.1539,0.1539 7.8632,0.3027 18.2984,1.4222 32.8581,5.5863 47.5743,14.6836 l 0.068,0.041 0.066,0.041 c 8.8501,5.3637 16.7143,11.9291 23.5899,20.127 l 0.2754,0.3281 0.289,0.3145 c 1.4787,1.6019 2.8143,3.2884 4.1856,5.164 l -8.627,34.2949 25.1524,-0.2265 c 0.9176,3.9407 1.7083,8.2501 2.3984,13.2929 2.5354,20.3701 0.9656,32.775 -7.4004,51.459 l -0.031,0.07 -0.031,0.07 c -7.8747,17.9994 -15.1168,27.0819 -33.0019,40.3515 -7.81,5.7945 -18.3256,11.1811 -32.9239,15.4043 -10.9346,2.9965 -22.4644,4.5625 -35.916,3.4863 l -0.1875,-0.016 -0.1894,-0.012 c -3.9481,-0.2323 -8.9768,-1.0286 -14.1504,-1.9395 -22.5678,-4.4876 -36.8856,-12.3911 -50.6446,-26.4199 l -0.016,-0.014 -0.014,-0.016 c -3.0608,-3.1058 -5.71,-6.0495 -8.1797,-8.9414 l 6.25,-34.8613 -24.6425,0.9961 c -1.2816,-4.8053 -2.2859,-9.9378 -3.0782,-15.668 -1.131,-8.492 -1.3748,-15.2076 -1.1191,-20.9551 0.5096,-8.656 2.8495,-18.5534 6.6094,-27.9531 l 0.045,-0.1113 0.043,-0.1113 c 5.121,-13.3149 14.7233,-27.1094 28.0078,-38.4961 l 0.01,-0.01 0.01,-0.01 c 17.7634,-15.2654 34.3191,-22.413 60.2343,-24.3848 l 0.2598,-0.019 0.2578,-0.027 c 2.0296,-0.2137 4.4017,-0.2746 6.9649,-0.2422 z m 229.9804,0.035 42.0098,0.031 -11.543,38.6133 -59.8008,0.4726 1.2422,154.5488 -30.5312,0.043 -1.166,-155.3027 -45.336,0.4082 c -0.6881,-1.3277 -1.5496,-2.6213 -2.289,-3.9356 l 6.3066,-25.0683 100.1836,-1.0723 z m 89.3574,0.8731 38.168,1.5879 -3.2539,78.2753 86.3281,3.5899 3.2539,-78.2754 30.8086,1.2793 c -1.3367,5.4392 -2.4044,11.0168 -2.8964,16.8516 -1.4264,15.3316 -0.2518,29.826 3.8242,43.039 l -4.209,101.2324 -12.3067,37.4336 -23.4882,-0.9765 3.4043,-81.8633 -86.3282,-3.5898 -3.4043,81.8632 -34.5351,-1.4355 6.8887,-165.6856 -11.1836,-0.4648 z m -213.1582,10.5117 0.5645,0.6426 c -0.1134,-0.1353 -0.2396,-0.2521 -0.3535,-0.3868 -0.079,-0.086 -0.1312,-0.1694 -0.211,-0.2558 z m -270.4902,2.3008 6.3613,152.705 36.8477,-1.4902 c 1.0183,1.796 2.0448,3.5935 3.1621,5.3613 l -4.9766,27.7637 -65.0957,2.6309 -6.4629,-155.168 -10.5273,0.4258 5.6367,-30.8106 z m 163.7871,22.3281 c -10.7934,0.301 -21.3481,3.4624 -30.8476,8.6719 l -0.1387,0.076 -0.1367,0.078 c -5.9324,3.3899 -11.1294,7.6304 -15.4121,12.3398 0,0 -0.01,0 -0.01,0.01 -12.4847,13.7041 -17.8771,31.5237 -16.2618,48.4843 l 0.01,0.096 0.01,0.096 c 3.0054,28.3375 24.8657,51.4984 53.4609,55.877 7.2566,1.2535 14.6344,1.2928 21.8242,-0.037 20.9667,-3.6653 38.9288,-17.497 47.1641,-37.2617 l 0.049,-0.1192 0.049,-0.1191 c 2.4948,-6.2367 4.2408,-13.0376 4.7051,-20.2813 2.4512,-32.6737 -20.7606,-62.1446 -53.625,-67.2226 0,-3e-4 0,3e-4 -0.01,0 -3.6186,-0.565 -7.2401,-0.7839 -10.836,-0.6836 z m -267.7246,3.0039 0.3945,0.1797 c -0.043,-0.02 -0.082,-0.029 -0.125,-0.049 -0.092,-0.041 -0.177,-0.09 -0.2695,-0.1309 z m 138.9942,10.9844 c -0.013,0.033 -0.024,0.067 -0.037,0.1 -0.016,0.041 -0.035,0.082 -0.051,0.123 z m 774.7558,4.7422 0.3652,0.2285 c -0.035,-0.023 -0.068,-0.034 -0.1035,-0.057 -0.09,-0.055 -0.1714,-0.1172 -0.2617,-0.1718 z m -645.1152,17.2382 c 1.4942,-0.037 2.9527,0.061 4.375,0.2832 h 0.022 0.019 c 16.2198,2.4954 24.4735,13.2567 23.2441,29.0332 l -0.012,0.1367 -0.01,0.1387 c -0.1731,2.7709 -0.93,5.9785 -2.1777,9.1309 -4.3357,10.3468 -8.4062,13.5158 -20.1192,15.5429 l -0.123,0.022 -0.1231,0.023 c -2.7727,0.52 -5.979,0.5555 -9.3144,-0.033 l -0.2344,-0.043 -0.2363,-0.035 c -13.4915,-2.0136 -21.768,-10.9013 -23.1934,-24.041 -0.8853,-9.4122 0.034,-13.0336 7.0469,-20.7246 l 0.01,-0.01 0.01,-0.01 c 1.985,-2.1835 3.718,-3.605 6.5195,-5.2207 5.0974,-2.7693 9.8592,-4.0877 14.2969,-4.1993 z m -201.2578,76.1602 -0.024,0.3086 c 0.01,-0.072 0,-0.1413 0.01,-0.2129 0,-0.032 0.012,-0.063 0.014,-0.096 z" />

      <path id="sloths-fill"       
        fill="#ef1818"
        d="m 2048.3007,1554.2545 c 17.8896,1.4418 31.8037,0.3445 42.0728,-2.5047 21.6576,-5.632 36.0247,-14.7673 49.7256,-32.0062 9.6675,-12.1013 16.3928,-25.1443 19.0352,-38.8133 8.1707,-38.6872 -6.8302,-71.4484 -42.6715,-93.1526 -3.9748,-2.5392 -7.9932,-4.3127 -12.3846,-6.1086 -19.0152,-8.0365 -19.0152,-8.0365 -37.6358,-16.4341 -2.1957,-0.8979 -4.3269,-2.944 -5.7115,-4.946 -3.0562,-5.557 0.01,-13.4401 7.6228,-15.6782 9.5011,-2.5105 17.3156,-1.6646 41.5332,7.0638 9.1778,3.2309 19.3452,8.8244 29.4265,15.9487 l 28.8216,-86.2374 -69.7261,-18.3316 -3.13,9.0317 c -10.3615,-2.1488 -20.7882,-3.1493 -30.4898,-3.7231 -29.1484,-0.955 -43.5652,2.4167 -59.533,13.3773 -20.6181,13.7579 -32.9989,34.1474 -35.2984,61.661 -3.7577,40.1007 11.9832,66.3768 49.5758,83.5764 15.6784,7.4554 31.7516,14.5502 31.7516,14.5502 l 13.1312,6.1528 c 0,0 0.7247,0.4267 1.4495,0.8537 2.1739,1.2805 3.9316,3.3046 5.2949,5.6893 3.3863,6.3447 0.7376,13.4847 -5.8001,16.5542 -4.5856,1.6489 -8.7334,2.1718 -16.8993,0.9209 -7.8145,-0.8458 -22.8545,-6.3436 -51.9512,-21.5048 -3.9966,-2.1563 -7.9933,-4.3129 -11.9901,-6.4692 l -25.7564,78.3544 c 13.0017,8.4492 25.3866,14.5577 38.9557,19.5842 24.2176,8.7284 37.5429,11.4364 50.5814,12.5912 z m -201.541,-16.5643 3.4038,-81.8642 50.3595,2.0939 -3.4038,81.8642 70.1885,2.9183 9.764,-234.8295 -70.1886,-2.9184 -3.2546,78.2765 -50.3595,-2.0939 3.2546,-78.2765 -70.5033,-2.9315 -18.6121,68.4899 15.7372,0.6544 -6.889,165.6854 z m -146.4398,-8.4132 -1.2432,-154.6664 55.0928,-0.4355 22.2681,-74.4905 -82.3675,-0.059 -0.9434,8.922 -98.0392,1.049 -16.3753,65.0925 53.9006,-0.4852 1.1635,155.1683 z m -304.5259,-28.2524 c 16.074,16.3892 34.6694,26.4748 60.1987,31.5176 5.358,0.9456 11.0312,1.8911 16.3892,2.2063 15.7588,1.2607 29.6266,-0.6304 42.2336,-4.0973 16.3892,-4.7277 28.9962,-11.0312 38.7667,-18.2803 19.5409,-14.4981 29.9418,-27.4203 38.7667,-47.5916 9.4553,-21.1168 11.6615,-38.4515 8.8249,-61.1442 -2.8365,-20.8017 -7.8794,-34.0391 -17.965,-49.4827 -3.1518,-4.7277 -5.9884,-8.8249 -9.7705,-12.9222 -8.1946,-9.7705 -17.6499,-17.6499 -28.0507,-23.9534 -17.3347,-10.716 -35.2997,-15.7589 -55.7862,-17.3347 -5.6732,-0.3152 -11.9767,-0.6304 -17.9651,0 -28.9962,2.2062 -50.4282,11.3463 -70.5995,28.681 -15.4436,13.2374 -26.79,29.3114 -33.0935,45.7006 -4.4125,11.0312 -7.249,22.6927 -7.8794,33.7239 -0.3152,6.9338 0,14.8132 1.2607,24.2685 3.7821,27.4204 13.2374,46.9613 34.6694,68.7085 z m 50.7434,-114.0939 c 3.1518,-3.4669 6.6187,-6.3035 11.0312,-8.8249 9.7705,-5.358 20.1713,-7.5642 30.2569,-5.9884 24.5838,3.7822 40.3426,23.9535 38.4515,48.222 -0.3151,5.0429 -1.5758,10.0857 -3.4669,14.8133 -6.3035,15.1285 -17.3347,23.6383 -33.7239,26.4748 -5.0428,0.9456 -10.4008,0.9456 -15.7588,0 -21.1168,-3.1517 -36.2453,-19.2257 -38.4515,-40.0274 -1.2607,-13.2374 1.891,-23.9534 11.6615,-34.6694 z m -74.0013,146.132 12.4748,-69.5842 -45.4393,1.8374 -6.3601,-152.7056 -67.4068,2.7257 -12.2764,67.109 15.0461,-0.6083 6.4628,155.1685 z m -217.4582,23.1119 c 18.8905,-0.9273 33.296,-3.9647 43.6634,-8.335 21.9137,-8.8238 35.7511,-20.3134 47.8415,-40.1721 8.5392,-13.947 13.8805,-28.4773 14.8717,-43.1056 3.5291,-41.4968 -16.4006,-73.6568 -56.6861,-91.4413 -4.4854,-2.1102 -8.9163,-3.4155 -13.7404,-4.693 -20.9224,-5.8043 -20.9224,-5.8043 -41.479,-12.0389 -2.412,-0.6387 -4.9051,-2.485 -6.6124,-4.3865 -3.9156,-5.3856 -1.7327,-14.0318 5.9378,-17.4032 9.6085,-3.9125 17.8884,-4.0917 44.3398,1.7273 10.0141,2.1249 20.7728,3.7975 32.2365,9.8641 l 23.5979,-87.3136 -81.1013,-12.2358 -0.5549,9.4786 c -11.1119,-0.8343 -21.9084,-1.3518 -32.1261,-0.6316 -30.5993,2.9656 -45.2353,8.4458 -60.5096,22.0587 -19.7737,17.1651 -30.0759,40.1331 -28.9144,69.1675 1.2681,42.3722 21.1308,67.6621 62.6637,80.506 17.3585,5.651 35.0828,10.8721 35.0828,10.8721 l 14.5264,4.6375 c 0,0 0.8131,0.3472 1.6262,0.6942 2.439,1.0412 4.5393,2.9153 6.2735,5.2193 4.3627,6.1628 2.5187,13.9763 -3.9188,18.0696 -4.5808,2.3449 -8.8495,3.4547 -17.5494,3.2591 -8.2798,0.1792 -24.7171,-3.5149 -57.103,-15.3859 -4.4581,-1.7078 -8.386,-3.1503 -12.8442,-4.858 l -16.2441,84.8988 c 14.6886,7.0525 27.3682,11.8781 42.2065,15.2805 26.4513,5.819 40.7343,6.8342 54.516,6.2672 z" />
        
    </g>

    <g id="Lethargic-text"
      transform="translate(-938.2354,-1144.5859)">
      
      <path id="lethargic-stroke"       
        fill="#000000"
        d="m 1526.5,1153.752 h -35.5684 l -1.9628,5.4414 -46.0196,-4.4414 -7.0644,-0.6817 -31.877,-3.0781 0.3301,-1.3906 h -14.7344 l -5.3203,-0.5137 -0.1738,0.5137 h -40.0098 l -0.8594,4.1504 h -23.916 l 1.209,-9.1661 -58.1953,5.2774 -0.9082,4.2519 -29.4766,2.6739 0.012,-0.1133 -58.6601,-6.2266 -20.4531,59.0918 10.9648,1.1641 -7.6133,71.7441 70.75,7.5078 0.08,0.8907 84.2402,-7.6407 0.01,3.6114 h 61.8925 v -5.1172 l 49.9258,4.8203 7.0625,0.6816 54.5723,5.2676 0.5449,-5.6523 h 37.4746 l 4.1524,-14.3145 h 5.4941 l 2.8633,14.3145 h 40.0195 l 0.3906,4.4414 51.1035,-4.4981 10.7227,-0.9433 56.7012,-4.9903 c 3.0631,1.6406 6.2696,3.0996 9.7168,4.2774 0,0 0.01,8e-4 0.01,0 0,0 0.01,0 0.01,0 9.0047,3.0828 18.1699,4.0606 28.1856,3.2227 16.2493,-1.2827 30.3518,-7.588 41.6309,-18.3985 l 0.09,-0.086 0.088,-0.086 c 0.043,-0.043 0.078,-0.09 0.1211,-0.1328 v 17.1875 h 61.9219 v -15 -0.959 c 5.0108,4.3969 10.7233,8.21 17.1347,11.25 l 0.066,0.031 0.068,0.031 c 9.402,4.3441 19.1375,6.8979 28.9844,6.8554 h 0.01 0.01 c 15.3774,-0.083 29.4123,-4.5712 40.625,-13.1484 l 8.7832,-6.7187 -16.7715,-45.5762 29.2324,-51.3906 -50.7011,-25.0938 -4.1817,6.0352 c -9.9988,-1.2433 -19.2159,-0.5918 -28.164,2.1132 -4.5251,1.3656 -8.5016,3.1997 -12.0411,5.0469 l -0.1347,0.07 -0.1328,0.072 c -4.6483,2.5471 -8.9026,5.6148 -12.7832,9.1211 v -15.8066 h -58.4141 l -2.3184,9.4941 -45.8398,-14.3848 -2.3984,3.2188 c -11.925,-0.8817 -24.7619,2.6943 -36.959,10.2734 l -0.043,0.027 -0.043,0.027 c -6.0417,3.8114 -11.4888,8.7018 -16.5039,14.9219 -5.1676,-8.3809 -12.4397,-15.0827 -21.0488,-19.2461 l -0.055,-0.025 -0.055,-0.025 c -6.5562,-3.1062 -13.8973,-4.5643 -21.9062,-4.9004 l -0.9727,-0.041 -0.9707,0.086 c 0.1018,-0.01 -1.1934,-0.037 -3.5742,0.1719 v 0 l -57.7461,5.082 -0.6367,4.4004 -2.5605,-9.08 h -30.627 z m -121.4629,27.4785 5.168,0.5 -3.3008,34.1953 52.6582,5.084 3.3008,-34.1973 1.914,0.1855 -7.0214,72.7286 -1.9121,-0.1836 3.4511,-35.7637 -52.6582,-5.084 -3.4531,35.7637 -2.0547,-0.1992 6.9863,-72.3828 -3.1933,-0.3086 z m 319.5586,0.7402 c 1.5173,0.1026 2.8378,0.3828 3.9551,0.7676 l 8.4668,2.914 c -3.0886,-0.6033 -5.9936,-0.9504 -8.0059,-0.9648 -17.2124,-0.2594 -33.32,11.1678 -37.5273,26.8105 l -0.016,0.061 -0.016,0.06 c -1.1475,4.414 -1.1262,8.4349 -0.9531,11.4278 l 0.012,0.2011 0.016,0.1993 c 0.891,10.5107 6.8268,21.3227 15.6192,27.2324 4.9199,3.3641 11.1186,5.7491 17.1387,6.0371 10.7873,0.6412 21.9002,-2.5704 28.7734,-9.8438 2.8567,-3.0121 4.5902,-5.9865 5.9414,-8.8085 l 6.4453,-13.4629 c -0.6451,7.945 -2.0612,11.1514 -6.4219,17.6035 -1.5648,2.268 -3.1513,4.1886 -5.1406,6.1679 -7.4473,7.1148 -11.905,9.1754 -23.1348,10.0586 h -0.043 -0.043 c -7.4385,0.628 -10.1336,0.306 -16.0195,-1.7109 h -0.01 -0.01 c -4.8762,-1.6644 -7.276,-3.0619 -11.3985,-6.3867 -9.0192,-7.5394 -11.7121,-12.0029 -13.918,-23.9707 -1.5353,-8.3292 -1.025,-12.6832 1.9805,-19.7559 l 0.029,-0.068 0.029,-0.068 c 0.7343,-1.7762 1.8112,-3.8268 2.9395,-5.4648 l 0.084,-0.1231 0.084,-0.1269 c 4.7681,-7.2284 7.5742,-9.855 12.4571,-12.9414 7.834,-4.8591 14.1375,-6.151 18.6816,-5.8438 z m -439.2656,0.1 -0.2774,2.0996 -35.2109,3.1934 2.9355,32.3613 0.3047,3.3613 2.9746,32.7891 32.9961,-2.9941 -0.3183,2.2461 -34.5352,3.1328 -6.4902,-71.5664 -3.3145,0.3007 0.166,-1.2265 z m 593.4922,0.1016 c 2.8184,-0.089 5.9376,0.3327 10.5781,1.2558 0.1673,0.047 1.2743,0.4055 3.3594,0.8711 l 8.83,1.9707 -1.4531,2.5567 c -7.7964,-3.7475 -15.9763,-5.3876 -23.459,-4.0254 l -0.062,0.012 -0.061,0.012 c -5.4418,1.0376 -11.1622,3.4308 -15.8477,7.2793 -10.1828,8.2663 -16.1014,23.0031 -13.2343,36.0586 l 0.01,0.023 v 0.024 c 2.3359,10.4751 10.1438,20.0584 20.4746,25.0742 l 0.1172,0.057 0.1172,0.055 c 7.9718,3.7011 17.1669,3.7759 26.0781,1.0528 l 0.9864,2.6816 c -3.6804,1.233 -7.8671,1.869 -13.1641,1.8984 -4.5239,0.019 -9.9422,-1.1792 -16.2129,-4.0683 -6.1964,-2.9513 -10.7505,-6.5587 -13.9551,-10.4414 -6.4468,-7.8109 -7.22,-9.9782 -8.4355,-18.6035 -1.0592,-8.2443 -0.918,-9.6909 1.6777,-17.4668 l 0.055,-0.1621 0.049,-0.1641 c 0.7829,-2.5363 2.0212,-5.2332 4.334,-8.6523 l 0.092,-0.1368 0.09,-0.1386 c 3.8977,-6.0447 7.0604,-8.9479 13.2187,-12.3457 2.4706,-1.2836 4.775,-2.2905 6.7324,-2.8809 v 0 0 c 3.6379,-1.0997 6.2184,-1.7031 9.0782,-1.7929 z m -54.0684,0.4883 c -0.031,0.045 -0.049,0.091 -0.08,0.1367 -0.032,0.049 -0.07,0.09 -0.1015,0.1386 z m -630.9004,0.1386 5.1133,0.543 -7.4941,70.6055 17.7168,1.8808 -0.6856,2.0039 -19.3027,-2.0488 7.6152,-71.7441 -3.2715,-0.3477 z m 435.5762,0.3418 c 5.0004,0.2407 7.8896,1.006 9.9766,1.9883 6.3499,3.0862 9.5397,6.6576 11.666,15.625 l 0.019,0.084 0.022,0.086 c 0.417,1.6724 0.5764,3.0424 0.5566,4.2207 v 0.2012 0.2031 c 0.099,9.7756 -1.4976,12.5991 -6.7481,17.209 l -0.8613,0.7578 -0.082,0.1 -12.4414,7.6504 15.4687,23.6016 -3.6289,0.3183 -14.2617,-25.1933 c 5.4991,-1.0045 11.1072,-3.2812 15.3887,-8.5449 5.2675,-6.4761 5.5486,-15.5625 3.6171,-21.8633 l -0.043,-0.1406 -0.045,-0.1387 c -1.561,-4.7586 -5.7635,-10.5515 -11.2774,-13.2539 -5.1713,-2.5345 -10.0282,-2.6792 -14.6035,-2.3457 l 5.3437,-0.4707 c -0.054,0 1.2227,-0.07 1.9356,-0.094 z m -303.1719,0.6114 h 39.166 l -0.2168,0.9199 h -22.0332 v 72.1465 h -1.9511 l -0.1426,-72.5762 h -14.9375 z m 191.2988,0 h 1.1954 l -15.8946,61.5546 h 0.7012 l -3.3398,11.5118 h -2.2481 z m 283.5606,0 h 4.8555 v 73.0664 h -1.9219 v -72.5762 h -3.0528 z m -132.5352,0.2363 c -0.026,0.038 -0.044,0.077 -0.07,0.1152 -0.032,0.048 -0.066,0.087 -0.098,0.1348 z m 70.8125,1.6777 4.461,1.6074 -0.4629,-0.1347 c 0,0 -1.4783,-0.4069 -2.9102,-0.7735 -0.4821,-0.1393 -0.9158,-0.1681 -1.3945,-0.2871 z m -140.8125,0.1133 1.0235,11.6289 0.2832,3.2305 2.8086,31.9121 2.289,26.0137 -2.0566,0.1816 -6.375,-72.4414 -3.1953,0.2812 0.051,-0.3515 z m -55.1816,5.7246 18.4141,65.3145 h -1.9571 l -2.3027,-11.5118 h 0.2422 l -5.0508,-18.8789 z m 136.8203,2.1602 0.041,0.1679 c -0.01,-0.03 -0.018,-0.058 -0.025,-0.088 -0.01,-0.025 -0.01,-0.054 -0.016,-0.08 z m -17.5391,1.2109 c -0.01,0.017 -0.01,0.035 -0.017,0.053 -0.011,0.027 -0.028,0.055 -0.039,0.082 z m 154.0274,4.0723 c -0.024,0.073 -0.036,0.1437 -0.061,0.2168 -0.011,0.036 -0.032,0.073 -0.043,0.1093 z m -53.582,4.164 c 0,0 0.3689,1.6397 0.8066,3.2657 l -0.5762,-2.2227 z m -81.461,2.1328 v 0.4043 c 10e-4,-0.058 -0.01,-0.1101 -0.01,-0.1679 -5e-4,-0.08 0.01,-0.1565 0.01,-0.2364 z m -61.791,0.1856 2.1602,1.8105 -1.92,2.2911 c -0.1849,-0.2917 -0.5496,-0.7543 -0.5898,-0.877 l -0.088,-0.2773 c 0.054,0.1748 0.01,-1.2625 0.4375,-2.9473 z m 263.8398,8.6289 c 1.5396,-0.08 3.1741,0.6607 7.9649,4.4883 1.1085,0.9507 1.8819,1.6487 2.2578,2.039 l -1.7812,1.7637 -0.025,0.014 -0.6973,0.4824 c -6.9133,4.7855 -8.8268,4.1429 -10.4688,3.3887 -3.5333,-1.7328 -3.7261,-2.4246 -4.2011,-4.5547 -0.9251,-4.168 -1.5485,-2.7406 2.8535,-6.2949 l 0.062,-0.051 0.062,-0.053 c 0.6076,-0.5016 0.8785,-0.6857 2.4141,-0.9805 0.576,-0.1071 1.071,-0.217 1.5585,-0.2422 z m -510.541,0.6133 h 1.6367 l -1.6367,16.9629 z" />

      <path id="lethargic-fill"       
        fill="#ffffff"
        d="m 1865.4041,1169.6061 c -3.2574,0.9825 -6.4138,2.4063 -9.4408,3.9861 -8.0431,4.4074 -13.7183,9.6166 -18.784,17.4726 -3.0149,4.457 -4.9913,8.5821 -6.2416,12.6327 -3.0236,9.0577 -3.5553,14.6153 -2.3174,24.2245 1.4544,10.3492 4.1322,16.9325 11.7353,26.1443 4.7679,5.7769 11.199,10.7062 19.1775,14.4892 7.85,3.627 15.4357,5.5033 22.6287,5.4723 12.8053,-0.069 22.9038,-3.4172 31.5926,-10.0637 l -11.2988,-30.704 c -0.7944,0.7868 -1.575,1.4311 -2.4846,1.9192 -9.856,6.8225 -18.4405,7.8705 -25.4626,4.6103 -7.0083,-3.4027 -10.9759,-8.5277 -12.3848,-14.8458 -1.9032,-8.6664 0.746,-15.3155 8.0707,-21.2297 2.6541,-2.1908 5.6542,-3.4856 9.1693,-4.1558 6.7322,-1.2256 13.3205,0.5554 21.8678,7.4126 1.3296,1.1337 2.6591,2.2675 3.8325,3.5302 l 18.1522,-31.9132 -24.8514,-12.2997 -2.3359,3.3715 c -1.1263,-0.2515 -2.3814,-0.6591 -3.5079,-0.9106 -11.0058,-2.2034 -18.0836,-1.8738 -27.1168,0.857 z m -44.4305,102.2128 v -103.067 h -31.6357 l -7.4437,30.4906 h 7.1572 v 72.5764 z m -140.0386,-79.3218 c -1.8373,2.6675 -3.3412,5.5647 -4.4485,8.2434 -3.9595,9.3177 -4.8736,17.7833 -2.9274,28.3416 2.6726,14.5 8.1492,23.6796 19.1569,32.859 5.1315,4.1487 9.6961,6.8007 16.0648,8.9746 7.458,2.5556 13.4003,3.2069 22.1435,2.4688 13.774,-1.0833 23.0465,-5.2668 32.4481,-14.2778 2.7079,-2.6825 4.9676,-5.4279 7.0343,-8.429 6.8639,-10.1445 8.9451,-17.8059 9.4695,-33.9141 0.092,-4.2385 -0.264,-8.5396 -1.4167,-14.0038 -0.3483,-1.1001 -0.5818,-2.3672 -0.5818,-2.3672 l -0.504,-1.945 -47.1605,8.6927 -2.0716,27.4559 16.3301,-3.01 c -0.8408,1.7561 -1.9631,3.5642 -3.3041,4.9758 -3.6524,3.8755 -8.8463,5.7063 -17.093,5.1885 -3.2268,-0.133 -6.1872,-1.1886 -9.5217,-3.485 -5.6427,-3.7636 -8.4587,-8.7758 -9.0783,-16.085 -0.1333,-2.3042 -0.1005,-4.4939 0.4957,-6.7872 2.6775,-9.955 10.6013,-15.9279 22.8677,-15.7144 2.3302,0.01 4.0976,0.1184 7.4802,1.096 1.3707,0.3295 2.9081,0.774 2.9081,0.774 l 1.8711,0.6739 18.2278,-28.2505 -24.2557,-7.6106 -1.6336,2.1934 c -9.6362,-3.3185 -22.1543,-1.7388 -35.4758,6.539 -6.5197,4.1129 -11.4503,8.9517 -17.0251,17.403 z m -59.6916,79.6944 -2.6728,-30.3733 16.5049,29.1561 38.216,-3.363 -20.7483,-31.6567 c 0.8178,-0.503 1.6231,-1.1487 2.2734,-1.9245 8.0035,-7.027 11.9814,-15.7119 11.8506,-28.6335 0.046,-2.7344 -0.3343,-5.4314 -1.0005,-8.103 -2.9705,-12.528 -9.7376,-20.842 -19.7937,-25.7052 -4.3486,-2.0603 -9.4776,-3.1896 -16.1125,-3.468 -1.1409,0.1004 -2.4367,0.071 -3.5775,0.1711 -22.9581,2.0203 -45.9162,4.0406 -45.9162,4.0406 l -4.4698,30.8583 7.1301,-0.6275 6.3745,72.4394 z m -6.4122,-72.8672 c 0,0 3.8501,-0.3388 7.7002,-0.6777 6.702,-0.5897 9.8723,1.143 11.2468,5.3332 2.016,6.5765 -1.1978,10.8829 -9.7535,11.6358 -3.8502,0.3388 -7.7003,0.6776 -7.7003,0.6776 z m -70.1341,58.1797 2.8631,14.3149 h 34.0693 l -29.0591,-103.067 h -51.104 l -10.0205,27.7709 h 7.1573 l -20.1838,75.2961 h 33.0673 l 4.1514,-14.3149 z m -6.4417,-27.1981 h -16.0325 l 7.8731,-30.4907 z m -121.5819,40.5249 3.4525,-35.764 22.7978,2.2008 -3.4525,35.764 31.7746,3.0674 9.9036,-102.5901 -31.7746,-3.0674 -3.3012,34.1967 -22.7978,-2.2008 3.3012,-34.1967 -31.9169,-3.0811 -10.0403,29.5195 7.1242,0.6878 -6.9875,72.3828 z m -58.499,0.9881 v -72.1467 h 18.8956 l 8.3028,-35.0715 h -29.0593 l -0.8589,4.1512 h -41.0836 l -7.1575,30.4906 h 18.8956 l 0.1434,72.5764 z m -56.2563,-2.8249 4.6463,-32.7622 -36.9239,3.3493 -0.569,-6.2728 30.6511,-2.7803 4.4377,-27.1374 -37.4941,3.401 -0.5302,-5.8451 32.2193,-2.9225 4.8544,-36.8055 -28.5122,2.5862 -0.9083,4.2507 -42.484,3.8536 -4.3089,31.7255 7.128,-0.6466 6.4916,71.5667 z m -83.0951,5.017 10.6439,-31.1157 -21.4947,-2.2813 7.4935,-70.6052 -31.8861,-3.3841 -10.3808,29.9922 7.1173,0.7553 -7.6144,71.7438 z" />

    </g>

  </g>

  <g id="icon"
    style="display:inline">

    <g id="Wings"
      transform="translate(-933.18307,-1138.0105)">

      <path id="right-wing"       
        fill="#ffffff"
        stroke="#000000"
        stroke-width="30"
        stroke-linejoin="round"
        paint-order="stroke fill"
        d="m 1697.1945,1694.7568 c 32.1442,-3.2318 -10.6498,0.2982 25.5899,-2.9335 1.4479,38.7494 -6.8078,68.0006 -41.042,91.1113 l -25.6034,-85.625 c 0,0 18.815,-63.0101 28.2227,-95.5759 12.3779,-4.8875 21.4388,-8.5878 33.8162,-13.4767 14.8288,43.9794 9.8186,76.0764 -20.9834,106.4998 z" />

      <path id="left-wing"
        fill="#ffffff"
        stroke="#000000"
        stroke-width="30"
        stroke-linejoin="round"
        paint-order="stroke fill"
        d="m 1332.7008,1694.7568 c -32.1442,-3.2318 10.6498,0.2982 -25.5899,-2.9335 -1.4479,38.7494 6.8078,68.0006 41.042,91.1113 l 25.6034,-85.625 c 0,0 -18.815,-63.0101 -28.2227,-95.5759 -12.3779,-4.8875 -21.4388,-8.5878 -33.8162,-13.4767 -14.8288,43.9794 -9.8186,76.0764 20.9834,106.4998 z" />

    </g>

    <g id="Star"
      transform="translate(-933.1831,-1138.0105)">

      <path id="star-shadow"       
        fill="#000000"
        transform="translate(2.5e-5,47.237225)"
        d="m 1514.7932,1521.7901 -63.5432,67.0844 -87.9961,20.4053 h 0.01 l 25.4502,85.4224 -25.4341,89.5107 -0.05,0.037 88.4399,22.3037 63.1216,65.1797 v 0.029 l 62.8052,-65.1855 88.7241,-22.3301 -25.7607,-86.7495 25.7607,-88.2202 -88.7241,-20.836 -62.8052,-66.6504 v 0 z" />

      <path id="star-stroke"       
        fill="#000000"
        transform="translate(2.5e-5,-2.5e-5)"
        d="m 1442.1621,1573.0195 -100.9961,23.418 29.3125,98.3809 -28.9824,102.0039 101.0586,25.4843 72.2739,74.6309 71.8885,-74.6094 101.5684,-25.5644 -29.4903,-99.3047 29.4903,-100.9942 -101.5723,-23.8554 -71.9102,-76.3125 z" />

      <path id="star-northeast"       
        fill="#ffe25b"
        d="m 1514.7834,1521.7934 v 74.2343 c 29.5795,17.0798 57.6612,33.2887 87.2407,50.3685 22.7724,-13.1485 41.5408,-23.9842 64.3141,-37.1311 -30.6568,-7.203 -87.9691,-22.1792 -87.9691,-22.1792 z" />

      <path id="star-east"       
        fill="#ffb820"
        d="m 1602.0241,1646.3962 v 100.7369 l 64.2884,37.1164 -24.1973,-86.7534 24.1841,-88.2401 z" />

      <path id="star-southeast"       
        fill="#c85e40"
        d="m 1602.0187,1747.1756 c 0,0 -57.9192,33.4029 -87.2354,50.3427 -0.013,26.2774 0,74.2457 0,74.2457 l 63.5878,-63.8343 87.9414,-23.6802 z" />

      <path id="star-southwest"       
        fill="#ffb820"
        d="m 1363.2236,1784.2548 87.6592,23.6514 63.9005,63.8287 10e-5,-74.2333 -87.2408,-50.3685 z" />

      <path id="star-west"       
        fill="#ffe25b"
        d="m 1387.1426,1694.7129 -23.919,89.5419 64.319,-37.1217 v -100.7369 l -64.3943,-36.9925 z" />

      <path id="star-northwest"       
        fill="#ffffff"
        d="m 1450.4707,1587.5176 -87.3224,21.8861 64.3943,36.9925 87.2404,-50.3685 4e-4,-74.2343 z" />

      <circle id="star-cameo"       
        fill="#000000"
        cx="1514.7257"
        cy="1696.6172"
        r="105" />

    </g>

    <g id="Sloth"
      transform="matrix(4.3954867,0,0,4.3954867,119.07955,252.30079)">

      <path id="sloth-face"       
        fill="#ffbe20"
        transform="matrix(0.22750609,0,0,0.22750609,-239.39616,-316.3044)"
        d="m 1514.9477,1611.0167 c -36.2259,0 -69.5178,20.6128 -82.5,52.5 22.1772,-3.8034 44.4981,-9.1815 57.4995,4.9996 6.7578,7.3709 5.6063,21.7193 0,30 -10.0636,14.8642 -39.9359,5.1367 -49.9995,20.0009 -4.6719,6.9006 -3.5346,17.4525 0,24.9991 5.5212,11.7881 18.1676,19.5747 30,25.0004 13.8229,6.3386 29.7931,7.5 45,7.5 15.2069,0 31.1771,-1.1614 45,-7.5 11.8324,-5.4257 24.4787,-13.2123 30,-25.0005 3.5346,-7.5465 4.6719,-18.0984 0,-24.999 -10.0636,-14.8642 -39.9359,-5.1367 -49.9995,-20.001 -5.6063,-8.2806 -6.7579,-22.629 0,-30 13.0014,-14.181 34.6541,-12.4164 57.4995,-4.9995 -12.9822,-31.8872 -46.2741,-52.5 -82.5,-52.5 z m 0,88.9248 c 7.1604,0 14.3208,2.5249 16.5,7.5748 3.1766,7.3611 -8.4827,17.5004 -16.5,17.5004 -8.0173,0 -19.6767,-10.1393 -16.5,-17.5004 2.1792,-5.0499 9.3396,-7.5748 16.5,-7.5748 z" />

      <path id="shiny"
        fill="#fefefe"
        d="m 95.86236,54.551254 c 1.07932,0.483235 0.972213,1.935087 -0.238682,3.242845 -1.211037,1.307702 -3.067708,1.976303 -4.146583,1.49274 -1.079262,-0.483151 -0.972044,-1.935038 0.238825,-3.242886 1.210899,-1.307758 3.0676,-1.976267 4.146444,-1.492698 z" />

      <path id="mouth"       
        fill="none"
        stroke="#000000"
        stroke-width="8.5"
        stroke-linecap="round"       
        transform="matrix(0.22750609,0,0,0.22750609,-27.091323,-57.399967)"
        d="m 568.6734,595.7598 c 7.3745,6.9169 19.2133,7.2794 26.1824,0">
        <animate
          attributeName="d"
          attributeType="XML"
          to="m 546.7144,591.25403 c 17.4556,19.8021 51.5942,21.788 70.1004,0.2012"
          dur="3s"
          fill="freeze" /> 
      </path>

      <g id="eye-orbs"
        fill="#fbbe03"
        transform="matrix(0.22750609,0,0,0.22750609,-108.29527,-236.29157)">

        <path id="left-orb"
          d="m 879.25,1333.4538 a 10,10 0 1 1 20,0 10,10 0 1 1 -20,0 z" />

        <path id="right-orb"
          d="m 978.25,1333.4538 a 10,10 0 1 1 20,0 10,10 0 1 1 -20,0 z" />

        <animate
          attributeName="fill"
          attributeType="XML"
          to="#c85e40"
          dur="3s"
          fill="freeze" /> 
          
      </g>

      <g id="eye-lids"
        fill="#000000"
        transform="matrix(0.22750609,0,0,0.22750609,-108.29527,-236.29157)">

        <path id="left-lid"
          d="m 879.25,1323.2538 a 10,10 0 1 1 20,0 z" >
          <animate
            attributeName="d"
            to="m 879.25,1323.2538 a 10,10 0 1 1 20,12.5 z"
            dur="3s"
            fill="freeze" />
        </path>

        <path id="right-lid"
          d="m 998.25,1323.2538 a 10,10 0 1 0 -20,0 z" >
          <animate
            attributeName="d"
            to="m 998.25,1323.2538 a 10,10 0 1 0 -20,12.5 z"
            dur="3s"
            fill="freeze" />
        </path>

      </g>

      <g id="eye-brows"
        fill="#000000"
        transform="matrix(0.22750609,0,0,0.22750609,-239.39615,-314.77302)">
        
        <path id="left-brow"
          d="m 1502,1640 c 2.75,0 5,2.25 5,5 0,2.75 -2.25,5 -5,5 h -23.8333 c -6.6667,0 -6.6667,-10 0,-10 z" >
          <animateTransform
            attributeName="transform"
            attributeType="XML"
            type="rotate"
            from="0,1482,1657"
            to="45,1482,1657"
            dur="3s"
            fill="freeze" />
        </path>

        <path id="right-brow"
          d="m 1552,1640 c 2.75,0 5,2.25 5,5 0,2.75 -2.25,5 -5,5 h -23.8333 c -6.6667,0 -6.6667,-10 0,-10 z" >
          <animateTransform
            attributeName="transform"
            attributeType="XML"
            type="rotate"
            from="0,1548,1657"
            to="-45,1548,1657"
            dur="3s"
            fill="freeze" />
        </path>

      </g>

    </g>

  </g>

</svg>
